. 
 
http://www.torrenting.com          :     Once & For all ;)


               www . Torrenting . Com 

(((((((((((((= Enjoy No RAR releases =))))))))))))))))))))


...................................NFO:....................................

.[IMG]http://lookpic.com/O/i2/158/gi8jkUdk.jpeg[/IMG]

[IMG]http://lookpic.com/O/i2/1172/ezesSv3C.png[/IMG]
 
http://www.imdb.com/title/tt1229238/

Source: YOUWANTBUYDVD.... THX

Format                           : AVI
Format/Info                      : Audio Video Interleave
File size                        : 1.61 GiB
Duration                         : 2h 8mn
Overall bit rate                 : 1 801 Kbps
Writing application              : VirtualDubMod 1.5.10.3 | www.virtualdub-fr.org || (build 2550/release)

Video
ID                               : 0
Format                           : MPEG-4 Visual
Format profile                   : Advanced Simple@L5
Format settings, BVOP            : Yes
Format settings, QPel            : No
Format settings, GMC             : No warppoints
Format settings, Matrix          : Default (H.263)
Muxing mode                      : Packed bitstream
Codec ID                         : XVID
Codec ID/Hint                    : XviD
Duration                         : 2h 8mn
Bit rate                         : 1 600 Kbps
Width                            : 720 pixels
Height                           : 304 pixels
Display aspect ratio             : 2.35:1
Frame rate                       : 23.976 fps
Color space                      : YUV
Chroma subsampling               : 4:2:0
Bit depth                        : 8 bits
Scan type                        : Progressive
Bits/(Pixel*Frame)               : 0.305
Stream size                      : 1.43 GiB (89%)
Writing library                  : XviD 1.2.1 (UTC 2008-12-04)

Audio
ID                               : 1
Format                           : MPEG Audio
Format version                   : Version 1
Format profile                   : Layer 3
Mode                             : Joint stereo
Mode extension                   : MS Stereo
Codec ID                         : 55
Codec ID/Hint                    : MP3
Duration                         : 2h 8mn
Bit rate mode                    : Constant
Bit rate                         : 192 Kbps
Channel(s)                       : 2 channels
Sampling rate                    : 48.0 KHz
Stream size                      : 176 MiB (11%)
Alignment                        : Split accross interleaves
Interleave, duration             : 42 ms (1.00 video frame)
Interleave, preload duration     : 500 ms


Workdone: Didnt do a whole lot on this but run a High Quality smoother and adjust the levels and brightness and resharpen it up a bit. We tried to remove subtitles but no luck, so we decided to keep them in. No english subs are added for non-english parts, might do a V2.

Audio: Adjusted the overall volume a bit, ran a denoiser and some audio enhancements.

[IMG]http://lookpic.com/O/i2/201/NUzvzLbT.png[/IMG]

[IMG]http://lookpic.com/O/i2/1114/EOkUnMHJ.jpeg[/IMG]
[IMG]http://lookpic.com/O/i2/271/ySy4XIo4.jpeg[/IMG]
[IMG]http://lookpic.com/O/i2/694/zr4CfLuo.jpeg[/IMG]
[IMG]http://lookpic.com/O/i2/166/dDftPTUW.jpeg[/IMG]
[IMG]http://lookpic.com/O/i2/1170/ctGIu08R.jpeg[/IMG]
[IMG]http://lookpic.com/O/i2/1771/peUNejQn.jpeg[/IMG]